PathFileType	4	(X/Y/Z)	/Users/itak/Documents/Research/Walk-IL/dataset/trc/00290_00010.trc
DataRate	CameraRate	NumFrames	NumMarkers	Units	OrigDataRate	OrigDataStartFrame	OrigNumFrames
100.000000	100.000000	4	53	mm	100.000000	0	674
Frame#	Time	RPSI			LPSI			L3			STRN			T10			C7			CLAV			RBAK			LBAK			LSHO			LUPA			LAEL			LAOL			LWTS			LWPS			LFRA			LHPS			RSHO			RUPA			RAEL			RAOL			RWTS			RWPS			RFRA			RIFD			RHTS			RHPS			RBHD			LFHD			RFHD			LBHD			LHIP			RHIP			RASI			LASI			LKNE			LTHI			LANK			LTIP			LTOE			LMT1			LMT5			LHEE			RKNE			RTHI			RANK			RTIP			RTOE			RMT1			RMT5			RHEE			LIFD			LHTS			
		X1	Y1	Z1	X2	Y2	Z2	X3	Y3	Z3	X4	Y4	Z4	X5	Y5	Z5	X6	Y6	Z6	X7	Y7	Z7	X8	Y8	Z8	X9	Y9	Z9	X10	Y10	Z10	X11	Y11	Z11	X12	Y12	Z12	X13	Y13	Z13	X14	Y14	Z14	X15	Y15	Z15	X16	Y16	Z16	X17	Y17	Z17	X18	Y18	Z18	X19	Y19	Z19	X20	Y20	Z20	X21	Y21	Z21	X22	Y22	Z22	X23	Y23	Z23	X24	Y24	Z24	X25	Y25	Z25	X26	Y26	Z26	X27	Y27	Z27	X28	Y28	Z28	X29	Y29	Z29	X30	Y30	Z30	X31	Y31	Z31	X32	Y32	Z32	X33	Y33	Z33	X34	Y34	Z34	X35	Y35	Z35	X36	Y36	Z36	X37	Y37	Z37	X38	Y38	Z38	X39	Y39	Z39	X40	Y40	Z40	X41	Y41	Z41	X42	Y42	Z42	X43	Y43	Z43	X44	Y44	Z44	X45	Y45	Z45	X46	Y46	Z46	X47	Y47	Z47	X48	Y48	Z48	X49	Y49	Z49	X50	Y50	Z50	X51	Y51	Z51	X52	Y52	Z52	X53	Y53	Z53	

1	0	265.4527282714844	999.7191162109375	1121.98193359375	241.4282836914062	990.1651611328125	1294.56591796875	235.9794158935547	1067.466552734375	1210.202758789062	-17.09879684448242	1244.597534179688	1191.97705078125	250.5944061279297	1185.27392578125	1215.152954101562	199.3370666503906	1429.175048828125	1231.287231445312	45.1898078918457	1344.697875976562	1205.258911132812	263.0065002441406	1294.86669921875	1158.111328125	203.8556365966797	1390.751586914062	1335.03564453125	107.7740783691406	1395.96240234375	1376.203125	125.7610702514648	1276.383666992188	1449.677734375	111.9348831176758	1071.997680664062	1456.3525390625	181.0195159912109	1059.269165039062	1405.219482421875	31.86588859558105	855.6300048828125	1385.355712890625	54.23260498046875	840.3057250976562	1451.8291015625	92.52490997314453	968.150146484375	1458.166137695312	46.78958892822266	752.0531616210938	1443.685180664062	150.9916229248047	1407.1259765625	1065.825317382812	163.6611480712891	1347.89404296875	999.6926879882812	158.0941314697266	1082.143676757812	943.4601440429688	196.5352172851562	1070.685302734375	1030.157470703125	44.17873382568359	864.9934692382812	998.0238647460938	81.82598876953125	858.9476928710938	923.5770874023438	127.8596801757812	1016.447082519531	932.5091552734375	24.05297470092773	678.1627197265625	993.0133056640625	5.493632793426514	751.0411376953125	980.4447021484375	51.53424453735352	748.4744873046875	927.7671508789062	170.9811096191406	1595.73876953125	1157.3291015625	-22.96859741210938	1613.9013671875	1243.140380859375	-6.041855812072754	1610.66943359375	1152.053955078125	143.0495758056641	1590.210327148438	1299.35009765625	159.9399108886719	943.1254272460938	1380.454345703125	176.3059844970703	952.5582275390625	1007.3271484375	48.70066070556641	958.1239013671875	1061.77978515625	30.17323303222656	952.3795166015625	1313.074096679688	73.55115509033203	479.799072265625	1340.546752929688	88.11219787597656	621.8591918945312	1361.381591796875	216.3607330322266	47.72544860839844	1336.790161132812	142.49462890625	256.5234985351562	1347.8974609375	20.9731616973877	39.35805130004883	1244.7783203125	96.93025970458984	30.54420280456543	1215.762329101562	93.80937957763672	42.80872344970703	1328.970581054688	270.6702270507812	44.04738616943359	1285.180297851562	121.9765167236328	478.3870849609375	1033.6015625	112.598014831543	743.1467895507812	999.746826171875	236.5598297119141	45.2839241027832	1072.613159179688	123.3844375610352	350.8504943847656	1046.2568359375	36.3448486328125	43.28873062133789	1100.6259765625	89.55933380126953	38.00662231445312	1146.776245117188	135.4809265136719	38.81318664550781	1038.646240234375	283.9756469726562	36.70751571655273	1125.970703125	20.10971260070801	667.2151489257812	1385.109497070312	2.779268026351929	757.63671875	1396.332275390625	
2	0.01	265.1499633789062	999.9026489257812	1122.053588867188	241.1934356689453	990.3193969726562	1294.670043945312	235.8045501708984	1067.539306640625	1210.292846679688	-17.04360008239746	1244.650634765625	1192.172485351562	250.5509796142578	1185.253295898438	1215.333984375	199.3957366943359	1429.178955078125	1231.521850585938	45.20722961425781	1344.757568359375	1205.409423828125	262.97412109375	1294.845825195312	1158.347045898438	203.8786926269531	1390.717041015625	1335.291259765625	107.8796539306641	1395.965209960938	1376.472412109375	125.9712142944336	1276.43896484375	1449.938842773438	111.9444808959961	1071.996948242188	1456.556640625	180.9919586181641	1059.218872070312	1405.4033203125	31.72880935668945	855.8056030273438	1385.724609375	54.08339691162109	840.41162109375	1452.212524414062	92.50144195556641	968.20556640625	1458.39111328125	46.65718841552734	752.0185546875	1443.910034179688	150.9875030517578	1407.15966796875	1066.0673828125	163.7156066894531	1347.924560546875	999.9837036132812	158.3791809082031	1082.243530273438	943.7009887695312	196.6618957519531	1070.736938476562	1030.416259765625	44.27017593383789	865.0843505859375	998.11279296875	81.99294281005859	859.0740356445312	923.6805419921875	128.1309661865234	1016.530029296875	932.6598510742188	24.06391334533691	678.3101806640625	993.1286010742188	5.562262535095215	751.1152954101562	980.4708251953125	51.62039184570312	748.561279296875	927.8915405273438	171.0682830810547	1595.763305664062	1157.561157226562	-22.87261199951172	1613.987060546875	1243.265625	-5.913295745849609	1610.701049804688	1152.239624023438	143.0398559570312	1590.279541015625	1299.596435546875	159.8397216796875	943.2267456054688	1380.521118164062	175.9644165039062	952.6526489257812	1007.38427734375	48.48405075073242	958.0616455078125	1061.838623046875	30.13255882263184	952.364501953125	1313.200927734375	73.93138885498047	479.836669921875	1340.4248046875	88.21725463867188	621.8699340820312	1361.341674804688	216.3641510009766	47.72891998291016	1336.75927734375	142.7488403320312	256.4980773925781	1347.72119140625	20.99792289733887	39.37824630737305	1244.761596679688	96.9287109375	30.52760887145996	1215.750122070312	93.84229278564453	42.88227844238281	1328.936279296875	270.7044677734375	43.97370910644531	1285.203002929688	122.4077835083008	478.470947265625	1033.806640625	112.7831115722656	743.1447143554688	999.8384399414062	236.5734710693359	45.19115829467773	1072.5888671875	123.6431655883789	350.9070129394531	1046.414428710938	36.42648696899414	43.3596305847168	1100.65625	89.65175628662109	38.12997055053711	1146.77001953125	135.5182495117188	38.83642578125	1038.621826171875	284.1045532226562	36.50662231445312	1125.896850585938	19.86416053771973	667.3599243164062	1385.487670898438	2.383094310760498	757.8499145507812	1396.786499023438	
3	0.02	264.7768249511719	1000.152099609375	1122.14404296875	240.9119262695312	990.5225219726562	1294.797973632812	235.5405731201172	1067.63330078125	1210.41552734375	-17.00256729125977	1244.716552734375	1192.4541015625	250.4716491699219	1185.223510742188	1215.557861328125	199.4488220214844	1429.178588867188	1231.80908203125	45.19827651977539	1344.828735351562	1205.622436523438	262.9098205566406	1294.82666015625	1158.634399414062	203.9024353027344	1390.676635742188	1335.599487304688	107.9912796020508	1395.971069335938	1376.798217773438	126.2117233276367	1276.506591796875	1450.265991210938	111.9694595336914	1071.997802734375	1456.84130859375	180.9799346923828	1059.190795898438	1405.636840820312	31.6103687286377	855.971923828125	1386.18994140625	53.94811630249023	840.5184326171875	1452.698364257812	92.49480438232422	968.27490234375	1458.712524414062	46.51469039916992	751.9711303710938	1444.247314453125	150.9660034179688	1407.210327148438	1066.374145507812	163.7746124267578	1347.973754882812	1000.347534179688	158.7605590820312	1082.3798828125	943.9996337890625	196.8134613037109	1070.81494140625	1030.752685546875	44.38318252563477	865.2057495117188	998.2127685546875	82.22549438476562	859.2423095703125	923.7867431640625	128.509033203125	1016.646118164062	932.8378295898438	24.06123542785645	678.5223388671875	993.2535400390625	5.66642427444458	751.2484741210938	980.47705078125	51.76905059814453	748.7064208984375	928.0108642578125	171.1686248779297	1595.783569335938	1157.855712890625	-22.76638221740723	1614.103271484375	1243.420776367188	-5.761344432830811	1610.750732421875	1152.464721679688	143.0336151123047	1590.358032226562	1299.902587890625	159.7380981445312	943.3650512695312	1380.614135742188	175.5454406738281	952.7843627929688	1007.461608886719	48.1833610534668	957.9999389648438	1061.938720703125	30.07556533813477	952.3441772460938	1313.36083984375	74.37067413330078	479.8785095214844	1340.265014648438	88.36125946044922	621.8668823242188	1361.301879882812	216.3681640625	47.73120880126953	1336.719848632812	143.0210113525391	256.4830932617188	1347.525756835938	21.03244972229004	39.41151428222656	1244.740356445312	96.93063354492188	30.50624465942383	1215.734619140625	93.88499450683594	42.98197937011719	1328.88720703125	270.7472229003906	43.87699508666992	1285.229248046875	122.9338912963867	478.5893859863281	1034.0546875	112.9761962890625	743.1521606445312	999.9625244140625	236.6002197265625	45.06184005737305	1072.54150390625	123.9802322387695	351.0035400390625	1046.603515625	36.52768325805664	43.46261978149414	1100.6884765625	89.77675628662109	38.29460906982422	1146.7587890625	135.5679168701172	38.87022399902344	1038.587036132812	284.2508544921875	36.2690315246582	1125.799560546875	19.59632110595703	667.5070190429688	1385.963745117188	1.944037079811096	758.0781860351562	1397.3857421875	
4	0.03	264.3460693359375	1000.464477539062	1122.251220703125	240.6005859375	990.7694091796875	1294.944091796875	235.1802825927734	1067.74755859375	1210.570068359375	-16.99424934387207	1244.793579101562	1192.824584960938	250.3460540771484	1185.18359375	1215.813232421875	199.4803161621094	1429.171264648438	1232.134399414062	45.14749908447266	1344.908081054688	1205.90234375	262.8034973144531	1294.811279296875	1158.957397460938	203.9234008789062	1390.632080078125	1335.94140625	108.0942306518555	1395.979125976562	1377.163208007812	126.4615478515625	1276.581909179688	1450.64404296875	112.0186538696289	1072.002319335938	1457.206176757812	180.986083984375	1059.190551757812	1405.907958984375	31.52206420898438	856.1087646484375	1386.740966796875	53.85504531860352	840.611328125	1453.270874023438	92.51465606689453	968.3539428710938	1459.134887695312	46.37652587890625	751.9127197265625	1444.7099609375	150.9185485839844	1407.278198242188	1066.734619140625	163.8252716064453	1348.0439453125	1000.769348144531	159.2345733642578	1082.552124023438	944.3414306640625	196.9791564941406	1070.922119140625	1031.159790039062	44.50508117675781	865.3766479492188	998.300537109375	82.52644348144531	859.4505004882812	923.8782958984375	128.99658203125	1016.796813964844	933.0289306640625	24.04158592224121	678.8020629882812	993.368408203125	5.806741237640381	751.4598388671875	980.4436645507812	51.99314117431641	748.9209594726562	928.1017456054688	171.2725677490234	1595.792846679688	1158.201538085938	-22.66008949279785	1614.250122070312	1243.600463867188	-5.59672737121582	1610.82177734375	1152.716430664062	143.0335235595703	1590.43994140625	1300.254272460938	159.6436767578125	943.5335693359375	1380.735717773438	175.0790405273438	952.9568481445312	1007.557434082031	47.79580688476562	957.9532470703125	1062.087768554688	29.99972915649414	952.3154296875	1313.550170898438	74.82872009277344	479.9201049804688	1340.07666015625	88.54170989990234	621.8414916992188	1361.269287109375	216.3723449707031	47.7313117980957	1336.673583984375	143.282470703125	256.4832153320312	1347.328002929688	21.07612991333008	39.45973968505859	1244.7138671875	96.93891143798828	30.48014640808105	1215.716796875	93.93677520751953	43.10507965087891	1328.822021484375	270.7963256835938	43.76141738891602	1285.256225585938	123.5175628662109	478.7421264648438	1034.332397460938	113.1443252563477	743.1740112304688	1000.120361328125	236.6422424316406	44.89776611328125	1072.464477539062	124.3845520019531	351.1462707519531	1046.818481445312	36.64517593383789	43.59987258911133	1100.72021484375	89.93282318115234	38.49535369873047	1146.742553710938	135.6276092529297	38.91486740112305	1038.540771484375	284.4017639160156	36.01021575927734	1125.682861328125	19.32497406005859	667.6290283203125	1386.520385742188	1.500308394432068	758.2899169921875	1398.123779296875	
